<svg width="301" height="60" viewBox="0 0 301 60" fill="none" xmlns="http://www.w3.org/2000/svg">
<path d="M82.8269 44.2657C77.3813 44.2657 72.9719 42.82 69.5986 39.9286C66.2252 36.989 64.4181 32.9169 64.1771 27.7123L64.1049 24.8209L64.1771 21.8571C64.3699 16.6526 66.153 12.5805 69.5263 9.64086C72.9478 6.70124 77.3813 5.23143 82.8269 5.23143C86.9231 5.23143 90.3687 5.97838 93.1637 7.47229C96.007 8.918 98.1032 10.677 99.4526 12.7491C100.85 14.7731 101.597 16.6285 101.693 18.3151C101.742 18.7971 101.573 19.2308 101.187 19.6163C100.85 19.9536 100.416 20.1223 99.8863 20.1223H90.706C90.1759 20.1223 89.7663 20.0018 89.4771 19.7609C89.188 19.5199 88.923 19.1585 88.682 18.6766C88.1037 17.1827 87.3568 16.1225 86.4411 15.496C85.5737 14.8695 84.4412 14.5563 83.0437 14.5563C79.0921 14.5563 77.044 17.1104 76.8994 22.2186L76.8271 24.9654L76.8994 27.3509C76.9958 29.9531 77.55 31.8808 78.562 33.1337C79.6222 34.3385 81.1161 34.9409 83.0437 34.9409C84.5376 34.9409 85.7183 34.6276 86.5857 34.0011C87.4531 33.3747 88.1519 32.3145 88.682 30.8206C88.923 30.3387 89.188 29.9772 89.4771 29.7363C89.7663 29.4953 90.1759 29.3749 90.706 29.3749H99.8863C100.368 29.3749 100.778 29.5435 101.115 29.8809C101.501 30.17 101.693 30.5555 101.693 31.0374C101.693 32.5795 101.019 34.3867 99.6694 36.4589C98.3683 38.5311 96.2961 40.3623 93.4529 41.9526C90.6096 43.4947 87.0676 44.2657 82.8269 44.2657Z" fill="black"/>
<path d="M121.922 44.2657C116.139 44.2657 111.585 42.6995 108.26 39.5671C104.935 36.4348 103.2 31.8808 103.056 25.9051V23.3751C103.248 17.6887 105.007 13.2551 108.332 10.0746C111.706 6.84581 116.212 5.23143 121.85 5.23143C125.946 5.23143 129.392 6.07476 132.187 7.76143C135.03 9.39991 137.15 11.6649 138.548 14.5563C139.994 17.4477 140.716 20.7729 140.716 24.5317V26.2666C140.716 26.7485 140.548 27.1822 140.21 27.5677C139.873 27.905 139.439 28.0737 138.909 28.0737H115.778V28.5797C115.874 30.8447 116.428 32.6759 117.44 34.0734C118.452 35.471 119.922 36.1697 121.85 36.1697C123.055 36.1697 124.043 35.9288 124.814 35.4469C125.585 34.9168 126.283 34.2903 126.91 33.5674C127.344 33.0373 127.681 32.7241 127.922 32.6277C128.211 32.4831 128.645 32.4109 129.223 32.4109H138.186C138.62 32.4109 138.982 32.5554 139.271 32.8446C139.608 33.0855 139.777 33.4229 139.777 33.8566C139.777 35.1095 139.054 36.5552 137.608 38.1937C136.211 39.8322 134.163 41.2538 131.464 42.4586C128.765 43.6633 125.585 44.2657 121.922 44.2657ZM127.994 20.9174V20.7729C127.994 18.4115 127.44 16.5562 126.332 15.2069C125.271 13.8093 123.777 13.1106 121.85 13.1106C119.97 13.1106 118.477 13.8093 117.368 15.2069C116.308 16.5562 115.778 18.4115 115.778 20.7729V20.9174H127.994Z" fill="black"/>
<path d="M149.196 57.2771C148.763 57.2771 148.401 57.1326 148.112 56.8434C147.823 56.5543 147.678 56.1929 147.678 55.7592C147.678 55.4218 147.751 55.1086 147.895 54.8194L153.534 41.2297L139.655 8.412C139.51 8.02648 139.438 7.73734 139.438 7.54457C139.534 7.11086 139.727 6.74943 140.016 6.46029C140.305 6.12295 140.667 5.95429 141.1 5.95429H149.341C150.353 5.95429 151.052 6.46029 151.437 7.47229L159.678 28.5074L168.135 7.47229C168.617 6.46029 169.34 5.95429 170.304 5.95429H178.4C178.834 5.95429 179.195 6.12295 179.484 6.46029C179.821 6.74943 179.99 7.08676 179.99 7.47229C179.99 7.66505 179.918 7.97829 179.773 8.412L159.316 55.7592C158.931 56.7712 158.208 57.2771 157.148 57.2771H149.196Z" fill="black"/>
<path d="M198.864 59.4457C194.286 59.4457 190.575 58.6988 187.732 57.2049C184.889 55.711 182.841 54.0002 181.588 52.0726C180.383 50.145 179.781 48.5306 179.781 47.2294C179.781 46.7957 179.973 46.4102 180.359 46.0729C180.744 45.7355 181.178 45.5669 181.66 45.5669H190.84C191.322 45.5669 191.684 45.6632 191.925 45.856C192.214 46.097 192.479 46.4825 192.72 47.0126C193.202 48.121 193.852 48.9884 194.672 49.6149C195.491 50.2895 196.768 50.6269 198.503 50.6269C200.719 50.6269 202.358 50.0727 203.418 48.9643C204.478 47.9041 205.008 46.097 205.008 43.5429V38.6997C202.551 41.3984 199.033 42.7477 194.455 42.7477C189.587 42.7477 185.853 41.3261 183.25 38.4829C180.696 35.5914 179.299 31.423 179.058 25.9774L178.985 24.0257C178.985 18.1947 180.287 13.6166 182.889 10.2914C185.491 6.9181 189.346 5.23143 194.455 5.23143C196.912 5.23143 199.081 5.71333 200.96 6.67714C202.84 7.59276 204.43 8.84572 205.731 10.436V7.76143C205.731 7.23133 205.9 6.79762 206.237 6.46029C206.623 6.12295 207.056 5.95429 207.538 5.95429H215.851C216.381 5.95429 216.815 6.14705 217.152 6.53257C217.538 6.86991 217.731 7.27953 217.731 7.76143V42.5309C217.731 48.0246 216.092 52.2171 212.815 55.1086C209.538 58 204.888 59.4457 198.864 59.4457ZM198.358 33.3506C200.527 33.3506 202.141 32.7 203.201 31.3989C204.261 30.0495 204.864 28.3629 205.008 26.3389C205.057 26.0015 205.081 25.2546 205.081 24.098C205.081 22.9896 205.057 22.2668 205.008 21.9294C204.912 19.9054 204.31 18.2429 203.201 16.9417C202.141 15.5924 200.527 14.9177 198.358 14.9177C196.093 14.9177 194.455 15.5924 193.443 16.9417C192.431 18.2911 191.876 20.1464 191.78 22.5077L191.708 24.098C191.708 26.9412 192.19 29.2062 193.154 30.8929C194.117 32.5313 195.852 33.3506 198.358 33.3506Z" fill="black"/>
<path d="M239.979 44.2657C234.197 44.2657 229.643 42.6995 226.317 39.5671C222.992 36.4348 221.257 31.8808 221.113 25.9051V23.3751C221.306 17.6887 223.065 13.2551 226.39 10.0746C229.763 6.84581 234.269 5.23143 239.907 5.23143C244.003 5.23143 247.449 6.07476 250.244 7.76143C253.087 9.39991 255.208 11.6649 256.605 14.5563C258.051 17.4477 258.774 20.7729 258.774 24.5317V26.2666C258.774 26.7485 258.605 27.1822 258.268 27.5677C257.93 27.905 257.497 28.0737 256.967 28.0737H233.835V28.5797C233.931 30.8447 234.486 32.6759 235.498 34.0734C236.51 35.471 237.979 36.1697 239.907 36.1697C241.112 36.1697 242.1 35.9288 242.871 35.4469C243.642 34.9168 244.341 34.2903 244.967 33.5674C245.401 33.0373 245.738 32.7241 245.979 32.6277C246.268 32.4831 246.702 32.4109 247.28 32.4109H256.244C256.677 32.4109 257.039 32.5554 257.328 32.8446C257.665 33.0855 257.834 33.4229 257.834 33.8566C257.834 35.1095 257.111 36.5552 255.665 38.1937C254.268 39.8322 252.22 41.2538 249.521 42.4586C246.822 43.6633 243.642 44.2657 239.979 44.2657ZM246.051 20.9174V20.7729C246.051 18.4115 245.497 16.5562 244.389 15.2069C243.329 13.8093 241.835 13.1106 239.907 13.1106C238.028 13.1106 236.534 13.8093 235.425 15.2069C234.365 16.5562 233.835 18.4115 233.835 20.7729V20.9174H246.051Z" fill="black"/>
<path d="M263.743 43.5429C263.213 43.5429 262.78 43.3742 262.442 43.0369C262.105 42.6995 261.936 42.2658 261.936 41.7357V7.76143C261.936 7.23133 262.105 6.79762 262.442 6.46029C262.78 6.12295 263.213 5.95429 263.743 5.95429H272.056C272.586 5.95429 273.02 6.12295 273.357 6.46029C273.743 6.79762 273.936 7.23133 273.936 7.76143V10.5083C275.237 8.918 276.899 7.64095 278.923 6.67714C280.996 5.71333 283.333 5.23143 285.935 5.23143C290.176 5.23143 293.621 6.67714 296.272 9.56857C298.922 12.4118 300.248 16.4116 300.248 21.568V41.7357C300.248 42.2176 300.079 42.6513 299.742 43.0369C299.404 43.3742 298.971 43.5429 298.44 43.5429H289.332C288.851 43.5429 288.417 43.3742 288.031 43.0369C287.694 42.6513 287.525 42.2176 287.525 41.7357V22.0017C287.525 19.7368 286.971 18.0019 285.863 16.7971C284.754 15.5442 283.164 14.9177 281.092 14.9177C279.068 14.9177 277.478 15.5442 276.321 16.7971C275.164 18.0019 274.586 19.7368 274.586 22.0017V41.7357C274.586 42.2176 274.418 42.6513 274.08 43.0369C273.743 43.3742 273.309 43.5429 272.779 43.5429H263.743Z" fill="black"/>
<circle cx="26.4571" cy="25.8" r="25.6286" fill="black"/>
<g clip-path="url(#clip0)">
<path d="M25.8 28.7571C30.4576 28.7571 34.2333 24.9814 34.2333 20.3238C34.2333 15.6662 30.4576 11.8905 25.8 11.8905C21.1424 11.8905 17.3666 15.6662 17.3666 20.3238C17.3666 24.9814 21.1424 28.7571 25.8 28.7571Z" stroke="white" stroke-width="2.62857" stroke-linecap="round" stroke-linejoin="round"/>
<path d="M21.234 27.4199L19.7762 38.3952L25.8001 34.7809L31.8239 38.3952L30.3661 27.4078" stroke="white" stroke-width="2.62857" stroke-linecap="round" stroke-linejoin="round"/>
</g>
<defs>
<clipPath id="clip0">
<rect width="28.9143" height="28.9143" fill="white" transform="translate(11.3428 10.6857)"/>
</clipPath>
</defs>
</svg>
