<svg width="301" height="60" viewBox="0 0 301 60" fill="none" xmlns="http://www.w3.org/2000/svg">
<path d="M82.8269 44.4372C77.3813 44.4372 72.9719 42.9914 69.5986 40.1C66.2252 37.1604 64.4181 33.0883 64.1771 27.8837L64.1049 24.9923L64.1771 22.0286C64.3699 16.824 66.153 12.7519 69.5263 9.8123C72.9478 6.87268 77.3813 5.40287 82.8269 5.40287C86.9231 5.40287 90.3687 6.14982 93.1637 7.64372C96.007 9.08944 98.1032 10.8484 99.4526 12.9206C100.85 14.9446 101.597 16.7999 101.693 18.4866C101.742 18.9685 101.573 19.4022 101.187 19.7877C100.85 20.1251 100.416 20.2937 99.8863 20.2937H90.706C90.1759 20.2937 89.7663 20.1732 89.4771 19.9323C89.188 19.6913 88.923 19.3299 88.682 18.848C88.1037 17.3541 87.3568 16.2939 86.4411 15.6674C85.5737 15.041 84.4412 14.7277 83.0437 14.7277C79.0921 14.7277 77.044 17.2818 76.8994 22.39L76.8271 25.1369L76.8994 27.5223C76.9958 30.1246 77.55 32.0522 78.562 33.3052C79.6222 34.5099 81.1161 35.1123 83.0437 35.1123C84.5376 35.1123 85.7183 34.7991 86.5857 34.1726C87.4531 33.5461 88.1519 32.4859 88.682 30.992C88.923 30.5101 89.188 30.1487 89.4771 29.9077C89.7663 29.6668 90.1759 29.5463 90.706 29.5463H99.8863C100.368 29.5463 100.778 29.715 101.115 30.0523C101.501 30.3414 101.693 30.727 101.693 31.2089C101.693 32.751 101.019 34.5581 99.6694 36.6303C98.3683 38.7025 96.2961 40.5337 93.4529 42.124C90.6096 43.6661 87.0676 44.4372 82.8269 44.4372Z" fill="white"/>
<path d="M121.922 44.4372C116.139 44.4372 111.585 42.871 108.26 39.7386C104.935 36.6062 103.2 32.0522 103.056 26.0766V23.5466C103.248 17.8601 105.007 13.4266 108.332 10.246C111.706 7.01725 116.212 5.40287 121.85 5.40287C125.946 5.40287 129.392 6.2462 132.187 7.93287C135.03 9.57134 137.15 11.8363 138.548 14.7277C139.994 17.6192 140.716 20.9443 140.716 24.7032V26.438C140.716 26.9199 140.548 27.3536 140.21 27.7392C139.873 28.0765 139.439 28.2452 138.909 28.2452H115.778V28.7512C115.874 31.0161 116.428 32.8473 117.44 34.2449C118.452 35.6424 119.922 36.3412 121.85 36.3412C123.055 36.3412 124.043 36.1002 124.814 35.6183C125.585 35.0882 126.283 34.4617 126.91 33.7389C127.344 33.2088 127.681 32.8955 127.922 32.7992C128.211 32.6546 128.645 32.5823 129.223 32.5823H138.186C138.62 32.5823 138.982 32.7269 139.271 33.016C139.608 33.257 139.777 33.5943 139.777 34.028C139.777 35.281 139.054 36.7267 137.608 38.3652C136.211 40.0036 134.163 41.4252 131.464 42.63C128.765 43.8348 125.585 44.4372 121.922 44.4372ZM127.994 21.0889V20.9443C127.994 18.583 127.44 16.7276 126.332 15.3783C125.271 13.9808 123.777 13.282 121.85 13.282C119.97 13.282 118.477 13.9808 117.368 15.3783C116.308 16.7276 115.778 18.583 115.778 20.9443V21.0889H127.994Z" fill="white"/>
<path d="M149.196 57.4486C148.763 57.4486 148.401 57.304 148.112 57.0149C147.823 56.7257 147.678 56.3643 147.678 55.9306C147.678 55.5933 147.751 55.28 147.895 54.9909L153.534 41.4012L139.655 8.58344C139.51 8.19791 139.438 7.90877 139.438 7.71601C139.534 7.2823 139.727 6.92087 140.016 6.63173C140.305 6.29439 140.667 6.12572 141.1 6.12572H149.341C150.353 6.12572 151.052 6.63172 151.437 7.64372L159.678 28.6789L168.135 7.64372C168.617 6.63172 169.34 6.12572 170.304 6.12572H178.4C178.834 6.12572 179.195 6.29439 179.484 6.63173C179.821 6.92087 179.99 7.2582 179.99 7.64372C179.99 7.83648 179.918 8.14972 179.773 8.58344L159.316 55.9306C158.931 56.9426 158.208 57.4486 157.148 57.4486H149.196Z" fill="white"/>
<path d="M198.864 59.6172C194.286 59.6172 190.575 58.8702 187.732 57.3763C184.889 55.8824 182.841 54.1716 181.588 52.244C180.383 50.3164 179.781 48.702 179.781 47.4009C179.781 46.9672 179.973 46.5816 180.359 46.2443C180.744 45.907 181.178 45.7383 181.66 45.7383H190.84C191.322 45.7383 191.684 45.8347 191.925 46.0274C192.214 46.2684 192.479 46.6539 192.72 47.184C193.202 48.2924 193.852 49.1598 194.672 49.7863C195.491 50.461 196.768 50.7983 198.503 50.7983C200.719 50.7983 202.358 50.2441 203.418 49.1357C204.478 48.0755 205.008 46.2684 205.008 43.7143V38.8712C202.551 41.5698 199.033 42.9192 194.455 42.9192C189.587 42.9192 185.853 41.4975 183.25 38.6543C180.696 35.7629 179.299 31.5944 179.058 26.1489L178.985 24.1972C178.985 18.3661 180.287 13.788 182.889 10.4629C185.491 7.08953 189.346 5.40287 194.455 5.40287C196.912 5.40287 199.081 5.88477 200.96 6.84858C202.84 7.7642 204.43 9.01715 205.731 10.6074V7.93287C205.731 7.40277 205.9 6.96906 206.237 6.63173C206.623 6.29439 207.056 6.12572 207.538 6.12572H215.851C216.381 6.12572 216.815 6.31848 217.152 6.70401C217.538 7.04134 217.731 7.45096 217.731 7.93287V42.7023C217.731 48.196 216.092 52.3886 212.815 55.28C209.538 58.1714 204.888 59.6172 198.864 59.6172ZM198.358 33.522C200.527 33.522 202.141 32.8714 203.201 31.5703C204.261 30.221 204.864 28.5343 205.008 26.5103C205.057 26.173 205.081 25.426 205.081 24.2694C205.081 23.1611 205.057 22.4382 205.008 22.1009C204.912 20.0769 204.31 18.4143 203.201 17.1132C202.141 15.7638 200.527 15.0892 198.358 15.0892C196.093 15.0892 194.455 15.7638 193.443 17.1132C192.431 18.4625 191.876 20.3178 191.78 22.6792L191.708 24.2694C191.708 27.1127 192.19 29.3776 193.154 31.0643C194.117 32.7028 195.852 33.522 198.358 33.522Z" fill="white"/>
<path d="M239.979 44.4372C234.197 44.4372 229.643 42.871 226.317 39.7386C222.992 36.6062 221.257 32.0522 221.113 26.0766V23.5466C221.306 17.8601 223.065 13.4266 226.39 10.246C229.763 7.01725 234.269 5.40287 239.907 5.40287C244.003 5.40287 247.449 6.2462 250.244 7.93287C253.087 9.57134 255.208 11.8363 256.605 14.7277C258.051 17.6192 258.774 20.9443 258.774 24.7032V26.438C258.774 26.9199 258.605 27.3536 258.268 27.7392C257.93 28.0765 257.497 28.2452 256.967 28.2452H233.835V28.7512C233.931 31.0161 234.486 32.8473 235.498 34.2449C236.51 35.6424 237.979 36.3412 239.907 36.3412C241.112 36.3412 242.1 36.1002 242.871 35.6183C243.642 35.0882 244.341 34.4617 244.967 33.7389C245.401 33.2088 245.738 32.8955 245.979 32.7992C246.268 32.6546 246.702 32.5823 247.28 32.5823H256.244C256.677 32.5823 257.039 32.7269 257.328 33.016C257.665 33.257 257.834 33.5943 257.834 34.028C257.834 35.281 257.111 36.7267 255.665 38.3652C254.268 40.0036 252.22 41.4252 249.521 42.63C246.822 43.8348 243.642 44.4372 239.979 44.4372ZM246.051 21.0889V20.9443C246.051 18.583 245.497 16.7276 244.389 15.3783C243.329 13.9808 241.835 13.282 239.907 13.282C238.028 13.282 236.534 13.9808 235.425 15.3783C234.365 16.7276 233.835 18.583 233.835 20.9443V21.0889H246.051Z" fill="white"/>
<path d="M263.743 43.7143C263.213 43.7143 262.78 43.5456 262.442 43.2083C262.105 42.871 261.936 42.4373 261.936 41.9072V7.93287C261.936 7.40277 262.105 6.96906 262.442 6.63173C262.78 6.29439 263.213 6.12572 263.743 6.12572H272.056C272.586 6.12572 273.02 6.29439 273.357 6.63173C273.743 6.96906 273.936 7.40277 273.936 7.93287V10.6797C275.237 9.08944 276.899 7.81239 278.923 6.84858C280.996 5.88477 283.333 5.40287 285.935 5.40287C290.176 5.40287 293.621 6.84858 296.272 9.74001C298.922 12.5832 300.248 16.5831 300.248 21.7394V41.9072C300.248 42.3891 300.079 42.8228 299.742 43.2083C299.404 43.5456 298.971 43.7143 298.44 43.7143H289.332C288.851 43.7143 288.417 43.5456 288.031 43.2083C287.694 42.8228 287.525 42.3891 287.525 41.9072V22.1732C287.525 19.9082 286.971 18.1733 285.863 16.9686C284.754 15.7156 283.164 15.0892 281.092 15.0892C279.068 15.0892 277.478 15.7156 276.321 16.9686C275.164 18.1733 274.586 19.9082 274.586 22.1732V41.9072C274.586 42.3891 274.418 42.8228 274.08 43.2083C273.743 43.5456 273.309 43.7143 272.779 43.7143H263.743Z" fill="white"/>
<circle cx="26.4571" cy="25.9714" r="25.6286" fill="white"/>
<g clip-path="url(#clip0)">
<path d="M25.8 28.9286C30.4576 28.9286 34.2333 25.1528 34.2333 20.4952C34.2333 15.8376 30.4576 12.0619 25.8 12.0619C21.1424 12.0619 17.3666 15.8376 17.3666 20.4952C17.3666 25.1528 21.1424 28.9286 25.8 28.9286Z" stroke="black" stroke-width="2.62857" stroke-linecap="round" stroke-linejoin="round"/>
<path d="M21.234 27.5913L19.7762 38.5667L25.8001 34.9524L31.8239 38.5667L30.3661 27.5792" stroke="black" stroke-width="2.62857" stroke-linecap="round" stroke-linejoin="round"/>
</g>
<defs>
<clipPath id="clip0">
<rect width="28.9143" height="28.9143" fill="white" transform="translate(11.3428 10.8571)"/>
</clipPath>
</defs>
</svg>
