<svg width="301" height="60" viewBox="0 0 301 60" fill="none" xmlns="http://www.w3.org/2000/svg">
<path d="M82.8269 44.0943C77.3813 44.0943 72.9719 42.6486 69.5986 39.7571C66.2252 36.8175 64.4181 32.7454 64.1771 27.5409L64.1049 24.6494L64.1771 21.6857C64.3699 16.4811 66.153 12.409 69.5263 9.46943C72.9478 6.52981 77.3813 5.06 82.8269 5.06C86.9231 5.06 90.3687 5.80695 93.1637 7.30085C96.007 8.74657 98.1032 10.5055 99.4526 12.5777C100.85 14.6017 101.597 16.457 101.693 18.1437C101.742 18.6256 101.573 19.0593 101.187 19.4449C100.85 19.7822 100.416 19.9509 99.8863 19.9509H90.706C90.1759 19.9509 89.7663 19.8304 89.4771 19.5894C89.188 19.3485 88.923 18.987 88.682 18.5051C88.1037 17.0112 87.3568 15.951 86.4411 15.3246C85.5737 14.6981 84.4412 14.3849 83.0437 14.3849C79.0921 14.3849 77.044 16.9389 76.8994 22.0471L76.8271 24.794L76.8994 27.1794C76.9958 29.7817 77.55 31.7093 78.562 32.9623C79.6222 34.167 81.1161 34.7694 83.0437 34.7694C84.5376 34.7694 85.7183 34.4562 86.5857 33.8297C87.4531 33.2032 88.1519 32.143 88.682 30.6491C88.923 30.1672 89.188 29.8058 89.4771 29.5649C89.7663 29.3239 90.1759 29.2034 90.706 29.2034H99.8863C100.368 29.2034 100.778 29.3721 101.115 29.7094C101.501 29.9986 101.693 30.3841 101.693 30.866C101.693 32.4081 101.019 34.2152 99.6694 36.2874C98.3683 38.3596 96.2961 40.1909 93.4529 41.7811C90.6096 43.3232 87.0676 44.0943 82.8269 44.0943Z" fill="black"/>
<path d="M121.922 44.0943C116.139 44.0943 111.585 42.5281 108.26 39.3957C104.935 36.2633 103.2 31.7093 103.056 25.7337V23.2037C103.248 17.5172 105.007 13.0837 108.332 9.90314C111.706 6.67438 116.212 5.06 121.85 5.06C125.946 5.06 129.392 5.90333 132.187 7.59C135.03 9.22847 137.15 11.4934 138.548 14.3849C139.994 17.2763 140.716 20.6014 140.716 24.3603V26.0951C140.716 26.577 140.548 27.0108 140.21 27.3963C139.873 27.7336 139.439 27.9023 138.909 27.9023H115.778V28.4083C115.874 30.6732 116.428 32.5045 117.44 33.902C118.452 35.2995 119.922 35.9983 121.85 35.9983C123.055 35.9983 124.043 35.7573 124.814 35.2754C125.585 34.7453 126.283 34.1189 126.91 33.396C127.344 32.8659 127.681 32.5527 127.922 32.4563C128.211 32.3117 128.645 32.2394 129.223 32.2394H138.186C138.62 32.2394 138.982 32.384 139.271 32.6731C139.608 32.9141 139.777 33.2514 139.777 33.6851C139.777 34.9381 139.054 36.3838 137.608 38.0223C136.211 39.6608 134.163 41.0824 131.464 42.2871C128.765 43.4919 125.585 44.0943 121.922 44.0943ZM127.994 20.746V20.6014C127.994 18.2401 127.44 16.3848 126.332 15.0354C125.271 13.6379 123.777 12.9391 121.85 12.9391C119.97 12.9391 118.477 13.6379 117.368 15.0354C116.308 16.3848 115.778 18.2401 115.778 20.6014V20.746H127.994Z" fill="black"/>
<path d="M149.196 57.1057C148.763 57.1057 148.401 56.9611 148.112 56.672C147.823 56.3829 147.678 56.0214 147.678 55.5877C147.678 55.2504 147.751 54.9371 147.895 54.648L153.534 41.0583L139.655 8.24057C139.51 7.85505 139.438 7.5659 139.438 7.37314C139.534 6.93943 139.727 6.578 140.016 6.28886C140.305 5.95152 140.667 5.78285 141.1 5.78285H149.341C150.353 5.78285 151.052 6.28885 151.437 7.30085L159.678 28.336L168.135 7.30085C168.617 6.28885 169.34 5.78285 170.304 5.78285H178.4C178.834 5.78285 179.195 5.95152 179.484 6.28886C179.821 6.578 179.99 6.91533 179.99 7.30085C179.99 7.49362 179.918 7.80685 179.773 8.24057L159.316 55.5877C158.931 56.5997 158.208 57.1057 157.148 57.1057H149.196Z" fill="black"/>
<path d="M198.864 59.2743C194.286 59.2743 190.575 58.5273 187.732 57.0334C184.889 55.5395 182.841 53.8288 181.588 51.9011C180.383 49.9735 179.781 48.3591 179.781 47.058C179.781 46.6243 179.973 46.2388 180.359 45.9014C180.744 45.5641 181.178 45.3954 181.66 45.3954H190.84C191.322 45.3954 191.684 45.4918 191.925 45.6846C192.214 45.9255 192.479 46.311 192.72 46.8411C193.202 47.9495 193.852 48.817 194.672 49.4434C195.491 50.1181 196.768 50.4554 198.503 50.4554C200.719 50.4554 202.358 49.9012 203.418 48.7929C204.478 47.7327 205.008 45.9255 205.008 43.3714V38.5283C202.551 41.227 199.033 42.5763 194.455 42.5763C189.587 42.5763 185.853 41.1547 183.25 38.3114C180.696 35.42 179.299 31.2515 179.058 25.806L178.985 23.8543C178.985 18.0232 180.287 13.4451 182.889 10.12C185.491 6.74666 189.346 5.06 194.455 5.06C196.912 5.06 199.081 5.5419 200.96 6.50571C202.84 7.42133 204.43 8.67428 205.731 10.2646V7.59C205.731 7.0599 205.9 6.62619 206.237 6.28886C206.623 5.95152 207.056 5.78285 207.538 5.78285H215.851C216.381 5.78285 216.815 5.97562 217.152 6.36114C217.538 6.69847 217.731 7.10809 217.731 7.59V42.3594C217.731 47.8531 216.092 52.0457 212.815 54.9371C209.538 57.8286 204.888 59.2743 198.864 59.2743ZM198.358 33.1791C200.527 33.1791 202.141 32.5286 203.201 31.2274C204.261 29.8781 204.864 28.1914 205.008 26.1674C205.057 25.8301 205.081 25.0831 205.081 23.9266C205.081 22.8182 205.057 22.0953 205.008 21.758C204.912 19.734 204.31 18.0714 203.201 16.7703C202.141 15.421 200.527 14.7463 198.358 14.7463C196.093 14.7463 194.455 15.421 193.443 16.7703C192.431 18.1196 191.876 19.975 191.78 22.3363L191.708 23.9266C191.708 26.7698 192.19 29.0348 193.154 30.7214C194.117 32.3599 195.852 33.1791 198.358 33.1791Z" fill="black"/>
<path d="M239.979 44.0943C234.197 44.0943 229.643 42.5281 226.317 39.3957C222.992 36.2633 221.257 31.7093 221.113 25.7337V23.2037C221.306 17.5172 223.065 13.0837 226.39 9.90314C229.763 6.67438 234.269 5.06 239.907 5.06C244.003 5.06 247.449 5.90333 250.244 7.59C253.087 9.22847 255.208 11.4934 256.605 14.3849C258.051 17.2763 258.774 20.6014 258.774 24.3603V26.0951C258.774 26.577 258.605 27.0108 258.268 27.3963C257.93 27.7336 257.497 27.9023 256.967 27.9023H233.835V28.4083C233.931 30.6732 234.486 32.5045 235.498 33.902C236.51 35.2995 237.979 35.9983 239.907 35.9983C241.112 35.9983 242.1 35.7573 242.871 35.2754C243.642 34.7453 244.341 34.1189 244.967 33.396C245.401 32.8659 245.738 32.5527 245.979 32.4563C246.268 32.3117 246.702 32.2394 247.28 32.2394H256.244C256.677 32.2394 257.039 32.384 257.328 32.6731C257.665 32.9141 257.834 33.2514 257.834 33.6851C257.834 34.9381 257.111 36.3838 255.665 38.0223C254.268 39.6608 252.22 41.0824 249.521 42.2871C246.822 43.4919 243.642 44.0943 239.979 44.0943ZM246.051 20.746V20.6014C246.051 18.2401 245.497 16.3848 244.389 15.0354C243.329 13.6379 241.835 12.9391 239.907 12.9391C238.028 12.9391 236.534 13.6379 235.425 15.0354C234.365 16.3848 233.835 18.2401 233.835 20.6014V20.746H246.051Z" fill="black"/>
<path d="M263.743 43.3714C263.213 43.3714 262.78 43.2028 262.442 42.8654C262.105 42.5281 261.936 42.0944 261.936 41.5643V7.59C261.936 7.0599 262.105 6.62619 262.442 6.28886C262.78 5.95152 263.213 5.78285 263.743 5.78285H272.056C272.586 5.78285 273.02 5.95152 273.357 6.28886C273.743 6.62619 273.936 7.0599 273.936 7.59V10.3369C275.237 8.74657 276.899 7.46952 278.923 6.50571C280.996 5.5419 283.333 5.06 285.935 5.06C290.176 5.06 293.621 6.50571 296.272 9.39714C298.922 12.2404 300.248 16.2402 300.248 21.3966V41.5643C300.248 42.0462 300.079 42.4799 299.742 42.8654C299.404 43.2028 298.971 43.3714 298.44 43.3714H289.332C288.851 43.3714 288.417 43.2028 288.031 42.8654C287.694 42.4799 287.525 42.0462 287.525 41.5643V21.8303C287.525 19.5653 286.971 17.8305 285.863 16.6257C284.754 15.3728 283.164 14.7463 281.092 14.7463C279.068 14.7463 277.478 15.3728 276.321 16.6257C275.164 17.8305 274.586 19.5653 274.586 21.8303V41.5643C274.586 42.0462 274.418 42.4799 274.08 42.8654C273.743 43.2028 273.309 43.3714 272.779 43.3714H263.743Z" fill="black"/>
<circle cx="26.4571" cy="25.6286" r="25.6286" fill="#4C24B7"/>
<g clip-path="url(#clip0)">
<path d="M25.8 28.5857C30.4576 28.5857 34.2333 24.81 34.2333 20.1524C34.2333 15.4948 30.4576 11.719 25.8 11.719C21.1424 11.719 17.3666 15.4948 17.3666 20.1524C17.3666 24.81 21.1424 28.5857 25.8 28.5857Z" stroke="white" stroke-width="2.62857" stroke-linecap="round" stroke-linejoin="round"/>
<path d="M21.234 27.2484L19.7762 38.2238L25.8001 34.6095L31.8239 38.2238L30.3661 27.2364" stroke="white" stroke-width="2.62857" stroke-linecap="round" stroke-linejoin="round"/>
</g>
<defs>
<clipPath id="clip0">
<rect width="28.9143" height="28.9143" fill="white" transform="translate(11.3428 10.5143)"/>
</clipPath>
</defs>
</svg>
